<svg width="1730" height="644" viewBox="0 0 1730 644" fill="none" xmlns="http://www.w3.org/2000/svg">
<g filter="url(#filter0_f_1330_2898)">
<path d="M1473.74 435.728C1518.87 409.791 1537.32 381.392 1527.38 353.17C1517.44 324.947 1479.43 297.818 1416.89 274.304C1354.34 250.789 1269.29 231.653 1169.64 218.673C1069.99 205.693 958.966 199.291 846.899 200.062C734.832 200.834 625.355 208.753 528.644 223.084C431.934 237.415 351.128 257.693 293.739 282.033C236.349 306.373 204.239 333.985 200.392 362.302C196.545 390.619 221.086 418.723 271.734 444H864.5L1473.74 435.728Z" fill="url(#paint0_radial_1330_2898)"/>
<path d="M1473.74 435.728C1518.87 409.791 1537.32 381.392 1527.38 353.17C1517.44 324.947 1479.43 297.818 1416.89 274.304C1354.34 250.789 1269.29 231.653 1169.64 218.673C1069.99 205.693 958.966 199.291 846.899 200.062C734.832 200.834 625.355 208.753 528.644 223.084C431.934 237.415 351.128 257.693 293.739 282.033C236.349 306.373 204.239 333.985 200.392 362.302C196.545 390.619 221.086 418.723 271.734 444H864.5L1473.74 435.728Z" fill="url(#paint1_linear_1330_2898)" fill-opacity="0.4"/>
</g>
<defs>
<filter id="filter0_f_1330_2898" x="0" y="0" width="1730" height="644" filterUnits="userSpaceOnUse" color-interpolation-filters="sRGB">
<feFlood flood-opacity="0" result="BackgroundImageFix"/>
<feBlend mode="normal" in="SourceGraphic" in2="BackgroundImageFix" result="shape"/>
<feGaussianBlur stdDeviation="100" result="effect1_foregroundBlur_1330_2898"/>
</filter>
<radialGradient id="paint0_radial_1330_2898" cx="0" cy="0" r="1" gradientUnits="userSpaceOnUse" gradientTransform="translate(769 303.891) rotate(67.5422) scale(251.307 922.214)">
<stop stop-color="#1A52BE"/>
<stop offset="1" stop-color="#24214B" stop-opacity="0"/>
</radialGradient>
<linearGradient id="paint1_linear_1330_2898" x1="1052.5" y1="368.424" x2="563.582" y2="344.48" gradientUnits="userSpaceOnUse">
<stop stop-color="#75F7FF"/>
<stop offset="0.459917" stop-color="white" stop-opacity="0.540083"/>
<stop offset="1" stop-opacity="0"/>
</linearGradient>
</defs>
</svg>
