<svg xmlns="http://www.w3.org/2000/svg" width="1440.614" height="617.666" viewBox="0 0 1440.614 617.666">
  <g id="Group_2880" data-name="Group 2880" transform="translate(-9202.146 -8087.579)">
    <path id="Path_27718" data-name="Path 27718" d="M9202.323,8563.658s128.4-119.583,323.6-119.583,247.7-72.289,494.058-72.289S10311.6,8703.4,10642.762,8703.4" transform="translate(-0.001 1.588)" fill="none" stroke="#707070" stroke-miterlimit="10" stroke-width="0.516"/>
    <path id="Path_27719" data-name="Path 27719" d="M9202.323,8561.286s134.458-113.77,329.657-113.77,241.644-82.658,488-82.658,291.615,331.975,622.781,331.975" transform="translate(-0.001 1.548)" fill="none" stroke="#707070" stroke-miterlimit="10" stroke-width="0.51" opacity="0.976"/>
    <path id="Path_27720" data-name="Path 27720" d="M9202.323,8558.912s140.516-107.954,335.716-107.954,235.585-93.029,481.941-93.029,291.615,332.335,622.781,332.335" transform="translate(-0.001 1.509)" fill="none" stroke="#707070" stroke-miterlimit="10" stroke-width="0.504" opacity="0.951"/>
    <path id="Path_27721" data-name="Path 27721" d="M9202.323,8556.539S9348.9,8454.4,9544.1,8454.4,9773.624,8351,10019.98,8351s291.615,332.694,622.781,332.694" transform="translate(-0.001 1.471)" fill="none" stroke="#707070" stroke-miterlimit="10" stroke-width="0.497" opacity="0.927"/>
    <path id="Path_27722" data-name="Path 27722" d="M9202.323,8554.166s152.633-96.328,347.83-96.328,223.471-113.766,469.827-113.766,291.615,333.056,622.781,333.056" transform="translate(-0.001 1.432)" fill="none" stroke="#707070" stroke-miterlimit="10" stroke-width="0.491" opacity="0.902"/>
    <path id="Path_27723" data-name="Path 27723" d="M9202.323,8551.792s158.689-90.514,353.89-90.514,217.411-124.136,463.768-124.136,291.615,333.417,622.781,333.417" transform="translate(-0.001 1.393)" fill="none" stroke="#707070" stroke-miterlimit="10" stroke-width="0.485" opacity="0.878"/>
    <path id="Path_27724" data-name="Path 27724" d="M9202.323,8549.419s164.746-84.7,359.946-84.7,211.354-134.5,457.711-134.5,291.615,333.776,622.781,333.776" transform="translate(-0.001 1.355)" fill="none" stroke="#707070" stroke-miterlimit="10" stroke-width="0.478" opacity="0.854"/>
    <path id="Path_27725" data-name="Path 27725" d="M9202.323,8547.045s170.806-78.885,366-78.885,205.3-144.874,451.653-144.874,291.615,334.137,622.781,334.137" transform="translate(-0.001 1.316)" fill="none" stroke="#707070" stroke-miterlimit="10" stroke-width="0.472" opacity="0.829"/>
    <path id="Path_27726" data-name="Path 27726" d="M9202.323,8544.672s176.863-73.072,372.063-73.072,199.238-155.243,445.595-155.243,291.615,334.5,622.781,334.5" transform="translate(-0.001 1.278)" fill="none" stroke="#707070" stroke-miterlimit="10" stroke-width="0.466" opacity="0.805"/>
    <path id="Path_27727" data-name="Path 27727" d="M9202.323,8542.3s182.921-67.259,378.121-67.259,193.18-165.611,439.536-165.611,291.615,334.857,622.781,334.857" transform="translate(-0.001 1.238)" fill="none" stroke="#707070" stroke-miterlimit="10" stroke-width="0.46" opacity="0.78"/>
    <path id="Path_27728" data-name="Path 27728" d="M9202.323,8539.926s188.979-61.444,384.178-61.444S9773.624,8302.5,10019.98,8302.5s291.615,335.219,622.781,335.219" transform="translate(-0.001 1.2)" fill="none" stroke="#707070" stroke-miterlimit="10" stroke-width="0.453" opacity="0.756"/>
    <path id="Path_27729" data-name="Path 27729" d="M9202.323,8537.551s195.037-55.631,390.237-55.631,181.063-186.35,427.42-186.35,291.615,335.579,622.781,335.579" transform="translate(-0.001 1.162)" fill="none" stroke="#707070" stroke-miterlimit="10" stroke-width="0.447" opacity="0.732"/>
    <path id="Path_27730" data-name="Path 27730" d="M9202.323,8535.179s201.1-49.818,396.295-49.818,175.006-196.719,421.362-196.719,291.615,335.939,622.781,335.939" transform="translate(-0.001 1.122)" fill="none" stroke="#707070" stroke-miterlimit="10" stroke-width="0.441" opacity="0.707"/>
    <path id="Path_27731" data-name="Path 27731" d="M9202.323,8532.806s207.153-44,402.353-44,168.948-207.089,415.3-207.089,291.615,336.3,622.781,336.3" transform="translate(-0.001 1.083)" fill="none" stroke="#707070" stroke-miterlimit="10" stroke-width="0.434" opacity="0.683"/>
    <path id="Path_27732" data-name="Path 27732" d="M9202.323,8530.431s213.21-38.188,408.411-38.188,162.89-217.458,409.246-217.458,291.615,336.661,622.781,336.661" transform="translate(-0.001 1.046)" fill="none" stroke="#707070" stroke-miterlimit="10" stroke-width="0.428" opacity="0.659"/>
    <path id="Path_27733" data-name="Path 27733" d="M9202.323,8528.06s219.269-32.377,414.468-32.377,156.833-227.826,403.189-227.826,291.615,337.021,622.781,337.021" transform="translate(-0.001 1.006)" fill="none" stroke="#707070" stroke-miterlimit="10" stroke-width="0.422" opacity="0.634"/>
    <path id="Path_27734" data-name="Path 27734" d="M9202.323,8525.685s225.326-26.562,420.525-26.562,150.775-238.2,397.132-238.2,291.615,337.381,622.781,337.381" transform="translate(-0.001 0.968)" fill="none" stroke="#707070" stroke-miterlimit="10" stroke-width="0.415" opacity="0.61"/>
    <path id="Path_27735" data-name="Path 27735" d="M9202.323,8523.312s231.384-20.748,426.584-20.748S9773.624,8254,10019.98,8254s291.615,337.741,622.781,337.741" transform="translate(-0.001 0.929)" fill="none" stroke="#707070" stroke-miterlimit="10" stroke-width="0.409" opacity="0.585"/>
    <path id="Path_27736" data-name="Path 27736" d="M9202.323,8520.938s237.443-14.933,432.642-14.933,138.659-258.936,385.016-258.936,291.615,338.1,622.781,338.1" transform="translate(-0.001 0.89)" fill="none" stroke="#707070" stroke-miterlimit="10" stroke-width="0.403" opacity="0.561"/>
    <path id="Path_27737" data-name="Path 27737" d="M9202.323,8518.564s243.5-9.12,438.7-9.12,132.6-269.3,378.958-269.3S10311.6,8578.6,10642.762,8578.6" transform="translate(-0.001 0.852)" fill="none" stroke="#707070" stroke-miterlimit="10" stroke-width="0.397" opacity="0.537"/>
    <path id="Path_27738" data-name="Path 27738" d="M9202.323,8516.192s249.559-3.308,444.759-3.308,126.542-279.672,372.9-279.672,291.615,338.824,622.781,338.824" transform="translate(-0.001 0.813)" fill="none" stroke="#707070" stroke-miterlimit="10" stroke-width="0.39" opacity="0.512"/>
    <path id="Path_27739" data-name="Path 27739" d="M9202.323,8513.818s255.617,2.508,450.815,2.508,120.485-290.042,366.842-290.042,291.615,339.184,622.781,339.184" transform="translate(-0.001 0.774)" fill="none" stroke="#707070" stroke-miterlimit="10" stroke-width="0.384" opacity="0.488"/>
    <path id="Path_27740" data-name="Path 27740" d="M9202.323,8511.445s261.675,8.32,456.874,8.32,114.427-300.411,360.783-300.411S10311.6,8558.9,10642.762,8558.9" transform="translate(-0.001 0.736)" fill="none" stroke="#707070" stroke-miterlimit="10" stroke-width="0.378" opacity="0.463"/>
    <path id="Path_27741" data-name="Path 27741" d="M9202.323,8509.072s267.732,14.135,462.933,14.135,108.368-310.78,354.725-310.78,291.615,339.905,622.781,339.905" transform="translate(-0.001 0.697)" fill="none" stroke="#707070" stroke-miterlimit="10" stroke-width="0.371" opacity="0.439"/>
    <path id="Path_27742" data-name="Path 27742" d="M9202.323,8506.7s273.79,19.949,468.989,19.949,102.312-321.15,348.668-321.15,291.615,340.266,622.781,340.266" transform="translate(-0.001 0.659)" fill="none" stroke="#707070" stroke-miterlimit="10" stroke-width="0.365" opacity="0.415"/>
    <path id="Path_27743" data-name="Path 27743" d="M9202.323,8504.324s279.848,25.764,475.048,25.764,96.253-331.519,342.609-331.519,291.615,340.625,622.781,340.625" transform="translate(-0.001 0.619)" fill="none" stroke="#707070" stroke-miterlimit="10" stroke-width="0.359" opacity="0.39"/>
    <path id="Path_27744" data-name="Path 27744" d="M9202.323,8501.952s285.905,31.576,481.105,31.576,90.2-341.888,336.552-341.888,291.615,340.987,622.781,340.987" transform="translate(-0.001 0.581)" fill="none" stroke="#707070" stroke-miterlimit="10" stroke-width="0.353" opacity="0.366"/>
    <path id="Path_27745" data-name="Path 27745" d="M9202.323,8499.578s291.964,37.39,487.163,37.39,84.138-352.256,330.494-352.256,291.615,341.347,622.781,341.347" transform="translate(-0.001 0.542)" fill="none" stroke="#707070" stroke-miterlimit="10" stroke-width="0.346" opacity="0.341"/>
    <path id="Path_27746" data-name="Path 27746" d="M9202.323,8497.2s298.021,43.2,493.221,43.2,78.08-362.625,324.437-362.625,291.615,341.707,622.781,341.707" transform="translate(-0.001 0.503)" fill="none" stroke="#707070" stroke-miterlimit="10" stroke-width="0.34" opacity="0.317"/>
    <path id="Path_27747" data-name="Path 27747" d="M9202.323,8494.833S9506.4,8543.85,9701.6,8543.85s72.021-373,318.378-373,291.615,342.069,622.781,342.069" transform="translate(-0.001 0.464)" fill="none" stroke="#707070" stroke-miterlimit="10" stroke-width="0.334" opacity="0.293"/>
    <path id="Path_27748" data-name="Path 27748" d="M9202.323,8492.458s310.139,54.832,505.337,54.832,65.964-383.365,312.32-383.365,291.615,342.429,622.781,342.429" transform="translate(-0.001 0.427)" fill="none" stroke="#707070" stroke-miterlimit="10" stroke-width="0.327" opacity="0.268"/>
    <path id="Path_27749" data-name="Path 27749" d="M9202.323,8490.085s316.2,60.646,511.395,60.646S9773.624,8157,10019.98,8157s291.615,342.788,622.781,342.788" transform="translate(-0.001 0.387)" fill="none" stroke="#707070" stroke-miterlimit="10" stroke-width="0.321" opacity="0.244"/>
    <path id="Path_27750" data-name="Path 27750" d="M9202.323,8487.711s322.254,66.459,517.453,66.459,53.848-404.1,300.2-404.1,291.615,343.149,622.781,343.149" transform="translate(-0.001 0.348)" fill="none" stroke="#707070" stroke-miterlimit="10" stroke-width="0.315" opacity="0.22"/>
    <path id="Path_27751" data-name="Path 27751" d="M9202.323,8485.339s328.313,72.272,523.51,72.272,47.791-414.472,294.147-414.472,291.615,343.51,622.781,343.51" transform="translate(-0.001 0.31)" fill="none" stroke="#707070" stroke-miterlimit="10" stroke-width="0.308" opacity="0.195"/>
    <path id="Path_27752" data-name="Path 27752" d="M9202.323,8482.965s334.37,78.088,529.568,78.088,41.732-424.842,288.089-424.842,291.615,343.872,622.781,343.872" transform="translate(-0.001 0.271)" fill="none" stroke="#707070" stroke-miterlimit="10" stroke-width="0.302" opacity="0.171"/>
    <path id="Path_27753" data-name="Path 27753" d="M9202.323,8480.591s340.427,83.9,535.627,83.9,35.674-435.209,282.03-435.209,291.615,344.229,622.781,344.229" transform="translate(-0.001 0.232)" fill="none" stroke="#707070" stroke-miterlimit="10" stroke-width="0.296" opacity="0.146"/>
    <path id="Path_27754" data-name="Path 27754" d="M9202.323,8478.219s346.485,89.714,541.686,89.714,29.615-445.579,275.972-445.579,291.615,344.591,622.781,344.591" transform="translate(-0.001 0.194)" fill="none" stroke="#707070" stroke-miterlimit="10" stroke-width="0.29" opacity="0.122"/>
    <path id="Path_27755" data-name="Path 27755" d="M9202.323,8475.845s352.543,95.528,547.742,95.528,23.559-455.949,269.915-455.949,291.615,344.953,622.781,344.953" transform="translate(-0.001 0.155)" fill="none" stroke="#707070" stroke-miterlimit="10" stroke-width="0.283" opacity="0.098"/>
    <path id="Path_27756" data-name="Path 27756" d="M9202.323,8473.472s358.6,101.341,553.8,101.341,17.5-466.317,263.856-466.317,291.615,345.312,622.781,345.312" transform="translate(-0.001 0.117)" fill="none" stroke="#707070" stroke-miterlimit="10" stroke-width="0.277" opacity="0.073"/>
    <path id="Path_27757" data-name="Path 27757" d="M9202.323,8471.1s364.659,107.157,559.858,107.157,11.442-476.688,257.8-476.688,291.615,345.673,622.781,345.673" transform="translate(-0.001 0.077)" fill="none" stroke="#707070" stroke-miterlimit="10" stroke-width="0.271" opacity="0.049"/>
    <path id="Path_27758" data-name="Path 27758" d="M9202.323,8468.725s370.717,112.97,565.916,112.97,5.385-487.056,251.741-487.056,291.615,346.032,622.781,346.032" transform="translate(-0.001 0.039)" fill="none" stroke="#707070" stroke-miterlimit="10" stroke-width="0.264" opacity="0.024"/>
    <path id="Path_27759" data-name="Path 27759" d="M9202.323,8466.352S9579.1,8585.135,9774.3,8585.135s-.674-497.425,245.683-497.425S10311.6,8434.1,10642.762,8434.1" transform="translate(-0.001 0)" fill="none" stroke="#707070" stroke-miterlimit="10" stroke-width="0.258" opacity="0"/>
  </g>
</svg>
